HIERARCHY
ROOT Hips
{
	OFFSET -0.001795 -0.223333 0.028219
	CHANNELS 6 Xposition Yposition Zposition Zrotation Yrotation Xrotation 
	JOINT LeftUpLeg
	{
		OFFSET 0.069520 -0.091406 -0.006815
		CHANNELS 3 Zrotation Yrotation Xrotation
		JOINT LeftLeg
		{
			OFFSET 0.034277 -0.375199 -0.004496
			CHANNELS 3 Zrotation Yrotation Xrotation
			JOINT LeftFoot
			{
				OFFSET -0.013596 -0.397961 -0.043693
				CHANNELS 3 Zrotation Yrotation Xrotation
				JOINT LeftToe
				{
					OFFSET 0.026358 -0.055791 0.119288
					CHANNELS 3 Zrotation Yrotation Xrotation
					End Site
					{
						OFFSET 0.000000 0.000000 0.000000
					}
				}
			}
		}
	}
	JOINT RightUpLeg
	{
		OFFSET -0.067670 -0.090522 -0.004320
		CHANNELS 3 Zrotation Yrotation Xrotation
		JOINT RightLeg
		{
			OFFSET -0.038290 -0.382569 -0.008850
			CHANNELS 3 Zrotation Yrotation Xrotation
			JOINT RightFoot
			{
				OFFSET 0.015774 -0.398415 -0.042312
				CHANNELS 3 Zrotation Yrotation Xrotation
				JOINT RightToe
				{
					OFFSET -0.025372 -0.048144 0.123348
					CHANNELS 3 Zrotation Yrotation Xrotation
					End Site
					{
						OFFSET 0.000000 0.000000 0.000000
					}
				}
			}
		}
	}
	JOINT Spine
	{
		OFFSET -0.002533 0.108963 -0.026696
		CHANNELS 3 Zrotation Yrotation Xrotation
		JOINT Spine1
		{
			OFFSET 0.005487 0.135180 0.001092
			CHANNELS 3 Zrotation Yrotation Xrotation
			JOINT Spine2
			{
				OFFSET 0.001457 0.052922 0.025425
				CHANNELS 3 Zrotation Yrotation Xrotation
				JOINT Neck
				{
					OFFSET -0.002778 0.213870 -0.042857
					CHANNELS 3 Zrotation Yrotation Xrotation
					JOINT Head
					{
						OFFSET 0.005152 0.064970 0.051349
						CHANNELS 3 Zrotation Yrotation Xrotation
						End Site
						{
							OFFSET 0.000000 0.000000 0.000000
						}
					}
				}
				JOINT LeftShoulder
				{
					OFFSET 0.078845 0.121749 -0.034090
					CHANNELS 3 Zrotation Yrotation Xrotation
					JOINT LeftArm
					{
						OFFSET 0.090977 0.030469 -0.008868
						CHANNELS 3 Zrotation Yrotation Xrotation
						JOINT LeftForeArm
						{
							OFFSET 0.259612 -0.012772 -0.027456
							CHANNELS 3 Zrotation Yrotation Xrotation
							JOINT LeftHand
							{
								OFFSET 0.249234 0.008986 -0.001171
								CHANNELS 3 Zrotation Yrotation Xrotation
								End Site
								{
									OFFSET 0.000000 0.000000 0.000000
								}
							}
						}
					}
				}
				JOINT RightShoulder
				{
					OFFSET -0.081759 0.118833 -0.038615
					CHANNELS 3 Zrotation Yrotation Xrotation
					JOINT RightArm
					{
						OFFSET -0.096012 0.032551 -0.009143
						CHANNELS 3 Zrotation Yrotation Xrotation
						JOINT RightForeArm
						{
							OFFSET -0.253742 -0.013329 -0.021401
							CHANNELS 3 Zrotation Yrotation Xrotation
							JOINT RightHand
							{
								OFFSET -0.255298 0.007772 -0.005559
								CHANNELS 3 Zrotation Yrotation Xrotation
								End Site
								{
									OFFSET 0.000000 0.000000 0.000000
								}
							}
						}
					}
				}
			}
		}
	}
}
MOTION
Frames: 17
Frame Time: 0.050000
0.720737 0.350902 -0.245037 -3.424251 -50.737400 -30.108609 15.647473 8.411752 -24.228611 6.884616 -12.817092 155.031719 -0.796517 -16.821402 -9.451211 0.000000 0.000000 0.000000 -27.810463 7.249828 -52.654088 92.755804 -68.392380 67.878874 -63.502047 -71.654271 35.178368 0.000000 0.000000 0.000000 33.889770 -2.330410 75.086596 -3.919715 0.982707 -18.199201 -13.715705 -17.005380 31.981740 9.350522 -6.153012 -39.654206 0.000000 0.000000 0.000000 -0.818717 -35.948125 10.809369 -23.078023 -37.399933 3.823302 57.561162 -67.262276 -34.622683 0.000000 0.000000 0.000000 22.840012 22.101926 4.233880 25.873762 23.682390 2.660973 -34.880142 68.360580 -27.356399 0.000000 0.000000 0.000000 
0.720105 0.351394 -0.244895 -3.262765 -51.078901 -29.761803 15.289184 8.529246 -25.027785 7.378301 -14.770501 154.832771 -1.730218 -18.626370 -8.543287 0.000000 0.000000 0.000000 -28.179737 7.351358 -53.116086 92.961388 -68.194279 67.527834 -63.657049 -71.370751 35.605390 0.000000 0.000000 0.000000 34.205812 -2.427927 75.574699 -4.501657 1.184055 -18.582830 -13.924121 -17.674534 31.895299 9.352445 -6.329688 -39.603702 0.000000 0.000000 0.000000 -1.370455 -35.805328 11.038166 -21.735008 -36.972360 3.409453 57.506739 -67.088426 -34.546650 0.000000 0.000000 0.000000 22.960376 22.338206 4.210126 25.622741 24.434831 2.812214 -36.422573 68.400272 -28.656118 0.000000 0.000000 0.000000 
0.719091 0.351862 -0.244447 -3.127129 -51.410376 -29.352559 15.004289 8.607391 -25.578579 7.779421 -16.410633 154.728064 -2.034378 -19.923902 -8.502245 0.000000 0.000000 0.000000 -28.587942 7.390537 -53.314384 91.950859 -68.042173 68.473794 -60.023178 -71.123765 31.585374 0.000000 0.000000 0.000000 34.377123 -2.419634 75.848127 -4.783232 1.251010 -18.997444 -14.049830 -17.664810 32.013307 9.598629 -6.444948 -39.991485 0.000000 0.000000 0.000000 -1.714224 -35.769306 11.177855 -21.000647 -36.996193 3.214122 55.962547 -67.214135 -33.631043 0.000000 0.000000 0.000000 23.278744 22.233836 4.169255 25.424248 24.995402 2.882402 -37.460434 69.018462 -29.726093 0.000000 0.000000 0.000000 
0.717702 0.352007 -0.243821 -3.096167 -51.559443 -28.939815 14.592313 8.583648 -26.149551 8.171372 -17.929901 154.578712 -2.355064 -21.128633 -8.374835 0.000000 0.000000 0.000000 -29.076910 7.294885 -53.224699 89.524440 -68.035325 70.940169 -54.001202 -70.860054 24.587615 0.000000 0.000000 0.000000 34.711181 -2.603770 76.259989 -4.637120 1.197584 -19.004650 -14.505829 -17.826645 31.562479 9.798688 -6.505753 -40.174990 0.000000 0.000000 0.000000 -1.764793 -35.677752 11.201992 -20.752212 -36.674566 3.071092 54.808782 -67.371901 -32.959413 0.000000 0.000000 0.000000 23.533713 22.109081 4.134570 25.526454 25.492361 2.991721 -38.232018 69.854703 -30.743102 0.000000 0.000000 0.000000 
0.716166 0.351851 -0.243243 -3.468986 -51.869455 -28.046185 14.324655 8.657158 -26.706604 8.381408 -18.886785 154.584728 -1.691095 -21.769408 -9.628448 0.000000 0.000000 0.000000 -29.207497 7.400805 -53.455016 91.190954 -67.934555 69.147890 -52.847730 -71.136111 22.673398 0.000000 0.000000 0.000000 34.968146 -2.684008 76.538144 -4.734206 1.196717 -19.565734 -14.478697 -17.836274 31.596139 10.090662 -6.639919 -40.373683 0.000000 0.000000 0.000000 -2.187606 -35.763710 11.437815 -20.814144 -36.416773 2.972778 52.096677 -67.350584 -31.028761 0.000000 0.000000 0.000000 23.875959 22.088732 4.149706 25.554602 25.741907 3.027316 -37.766539 70.552107 -30.696930 0.000000 0.000000 0.000000 
0.714651 0.352018 -0.242819 -3.718228 -52.175795 -26.997195 13.969095 8.814546 -27.625842 8.710878 -20.417297 154.534413 -1.515307 -23.190658 -10.325327 0.000000 0.000000 0.000000 -29.553458 7.509505 -53.857640 92.159167 -68.010703 68.106907 -52.269744 -70.392089 22.725187 0.000000 0.000000 0.000000 34.975552 -2.621956 76.839062 -4.678642 1.117321 -20.077027 -14.529467 -17.793918 31.521226 10.105360 -6.630001 -40.526074 0.000000 0.000000 0.000000 -2.142195 -35.514202 11.383739 -21.140725 -36.319300 2.984145 49.296741 -67.268780 -28.954120 0.000000 0.000000 0.000000 24.342868 22.273725 4.262233 25.252050 25.974371 3.029816 -36.769101 70.916315 -30.012191 0.000000 0.000000 0.000000 
0.713436 0.352527 -0.242586 -3.926357 -52.432159 -26.119684 13.658908 9.036153 -28.646170 9.023647 -22.412945 154.548706 -0.936992 -25.389791 -11.917103 0.000000 0.000000 0.000000 -29.704991 7.666468 -54.401212 92.764328 -67.926916 67.362435 -51.640308 -70.270676 21.893961 0.000000 0.000000 0.000000 35.339817 -2.810741 77.435543 -5.059318 1.230514 -20.656833 -14.626090 -18.340065 31.795128 10.146127 -6.553206 -41.132240 0.000000 0.000000 0.000000 -2.028299 -35.316394 11.288061 -21.151310 -36.332569 3.005938 47.859749 -66.671120 -27.537696 0.000000 0.000000 0.000000 24.423016 22.379046 4.246654 25.474124 26.322769 3.112830 -36.240609 70.692553 -29.511501 0.000000 0.000000 0.000000 
0.712693 0.353861 -0.242451 -4.181387 -52.734611 -25.087006 13.156265 9.230732 -29.859864 9.633082 -24.773324 154.239873 -0.714738 -27.639160 -12.883578 0.000000 0.000000 0.000000 -29.892494 7.869727 -55.090263 94.929046 -67.635684 64.914627 -51.932062 -70.556129 21.738132 0.000000 0.000000 0.000000 35.363885 -2.784719 78.010815 -4.860197 1.113776 -21.228108 -14.624882 -18.403862 31.710151 9.956323 -6.246838 -41.959234 0.000000 0.000000 0.000000 -1.808121 -35.216826 11.188218 -21.785934 -36.358229 3.133706 46.457396 -66.402265 -26.360907 0.000000 0.000000 0.000000 24.415989 22.512469 4.402049 25.350209 27.034769 3.183565 -35.015782 69.770371 -28.038020 0.000000 0.000000 0.000000 
0.712351 0.355671 -0.242398 -4.451981 -53.058075 -23.772131 12.674834 9.413601 -30.955545 10.353587 -26.932924 153.760178 -1.207060 -29.942503 -12.742561 0.000000 0.000000 0.000000 -30.404977 8.007723 -55.726501 95.963988 -67.485530 63.654889 -51.174753 -69.728572 21.577787 0.000000 0.000000 0.000000 35.474216 -2.759233 78.473155 -5.042460 1.120386 -21.786773 -14.673188 -18.650406 31.885408 9.880945 -6.016061 -42.691280 0.000000 0.000000 0.000000 -1.303740 -35.089509 10.976120 -21.768912 -36.317025 3.159551 46.947036 -65.636183 -26.199789 0.000000 0.000000 0.000000 23.934338 22.902006 4.620833 25.259929 27.595456 3.211964 -35.869927 68.936688 -28.263086 0.000000 0.000000 0.000000 
0.712081 0.357582 -0.242311 -4.899968 -53.195224 -22.658465 12.273640 9.458395 -31.681718 11.179454 -29.099345 153.079370 -1.757413 -32.106004 -12.505992 0.000000 0.000000 0.000000 -30.813437 8.023197 -56.086442 96.867317 -67.394284 62.572723 -48.820821 -69.340911 18.945370 0.000000 0.000000 0.000000 35.696305 -2.950745 79.120969 -5.325761 1.183164 -22.475131 -14.467771 -18.853712 31.998758 9.778108 -5.850000 -43.058779 0.000000 0.000000 0.000000 -0.823734 -34.972144 10.718366 -22.405957 -36.731779 3.418945 45.504077 -65.262244 -24.946935 0.000000 0.000000 0.000000 22.898814 22.954694 4.811116 25.341276 28.501679 3.229331 -36.385508 67.133474 -27.729634 0.000000 0.000000 0.000000 
0.711642 0.359400 -0.241920 -5.360953 -53.400976 -21.319712 11.979191 9.459635 -32.069286 11.864329 -30.579725 152.544005 -2.415518 -33.926405 -12.033009 0.000000 0.000000 0.000000 -31.366246 8.075826 -56.558451 97.612784 -67.362365 61.660142 -48.097593 -68.694556 18.674381 0.000000 0.000000 0.000000 35.837549 -2.983345 79.399356 -5.485732 1.179768 -23.039060 -14.491891 -18.873422 32.181014 9.793707 -5.723614 -43.494137 0.000000 0.000000 0.000000 0.672916 -34.711416 9.969033 -23.437163 -37.051285 3.824868 45.186676 -64.652159 -24.214254 0.000000 0.000000 0.000000 21.995251 23.250664 5.051002 25.166365 29.194310 3.232244 -36.799405 65.876143 -27.428985 0.000000 0.000000 0.000000 
0.710678 0.360440 -0.241200 -5.824811 -53.365382 -20.311596 11.930958 9.590801 -32.531820 12.619888 -33.102471 151.992636 -2.625907 -36.756537 -12.530694 0.000000 0.000000 0.000000 -31.900102 7.985940 -56.743464 97.804207 -67.433831 61.360043 -47.333250 -67.955412 18.511210 0.000000 0.000000 0.000000 36.132821 -3.271188 79.796493 -5.929997 1.278818 -23.535217 -14.413807 -19.086470 32.314801 9.904860 -5.829541 -43.303382 0.000000 0.000000 0.000000 0.833358 -34.600932 9.876814 -23.707144 -37.784932 4.073970 43.443726 -63.458642 -22.550195 0.000000 0.000000 0.000000 21.201335 23.242232 5.151750 25.510875 29.847730 3.264817 -35.666154 64.373900 -25.883551 0.000000 0.000000 0.000000 
0.709640 0.361490 -0.240461 -6.012013 -53.274505 -19.775408 12.159851 9.702948 -32.517188 13.351226 -34.861164 151.303908 -3.260761 -39.202245 -12.355733 0.000000 0.000000 0.000000 -32.380843 7.852374 -56.788399 97.108883 -67.585900 62.025391 -46.291527 -66.961157 18.374554 0.000000 0.000000 0.000000 36.229691 -3.471993 80.356139 -6.142975 1.324475 -23.972973 -14.448186 -19.102766 32.418940 9.850638 -5.702843 -43.501275 0.000000 0.000000 0.000000 1.783055 -34.682763 9.446607 -24.014207 -38.391435 4.384166 41.897282 -62.213900 -21.050903 0.000000 0.000000 0.000000 20.506259 23.274656 5.320188 25.461036 30.462250 3.258813 -33.295483 62.591623 -23.404872 0.000000 0.000000 0.000000 
0.708754 0.362027 -0.240023 -5.919382 -53.291368 -19.581433 12.191890 10.004575 -33.166388 13.333008 -34.982347 151.274149 -3.263106 -39.724721 -12.440709 0.000000 0.000000 0.000000 -32.636292 7.891817 -57.157418 97.488496 -67.743667 61.639405 -46.793174 -66.883494 19.067414 0.000000 0.000000 0.000000 35.983402 -3.375983 80.912734 -5.843383 1.183350 -24.225131 -14.693556 -18.743459 32.380030 9.948025 -5.805571 -43.147749 0.000000 0.000000 0.000000 1.605802 -34.897979 9.585735 -24.204588 -38.932650 4.493359 40.407315 -60.758018 -19.710435 0.000000 0.000000 0.000000 20.735483 23.143149 5.446916 25.071777 29.835163 3.057626 -30.080515 61.839652 -20.780551 0.000000 0.000000 0.000000 
0.708203 0.362751 -0.240004 -5.890868 -53.095483 -19.205962 12.007676 10.289914 -34.227572 12.923604 -34.273331 151.501626 -2.220245 -38.492807 -13.575028 0.000000 0.000000 0.000000 -33.102643 7.777889 -57.378747 94.989725 -68.069223 64.174802 -44.573618 -65.522077 17.619754 0.000000 0.000000 0.000000 35.830291 -3.454209 81.339795 -6.233237 1.258975 -24.437719 -14.375706 -18.592094 32.469987 9.870847 -5.856304 -42.750209 0.000000 0.000000 0.000000 1.853386 -35.222447 9.550816 -24.182367 -39.729194 4.701572 39.023122 -59.479980 -18.497594 0.000000 0.000000 0.000000 20.377938 22.892541 5.476202 24.921926 29.072462 2.812348 -26.388152 60.554145 -17.827944 0.000000 0.000000 0.000000 
0.707850 0.363734 -0.240294 -5.741645 -52.781675 -18.895501 11.508011 10.313785 -35.195074 12.497281 -32.765928 151.645698 -0.908349 -36.703659 -15.069623 0.000000 0.000000 0.000000 -33.257763 7.706562 -57.521848 93.004877 -68.478192 66.280181 -44.210225 -64.214269 18.777450 0.000000 0.000000 0.000000 35.350907 -3.335720 81.544936 -6.326263 1.235909 -24.617788 -14.042217 -18.154075 32.795283 9.728791 -5.762763 -42.545063 0.000000 0.000000 0.000000 1.870381 -35.243964 9.543397 -24.410565 -40.751134 4.988695 38.462177 -57.854606 -17.673288 0.000000 0.000000 0.000000 19.758708 22.488622 5.481448 25.271983 27.842177 2.512358 -23.386395 60.343999 -15.775558 0.000000 0.000000 0.000000 
0.707313 0.363509 -0.240340 -5.283364 -52.820968 -19.241198 11.247108 10.661739 -36.359645 11.776870 -31.295802 152.199316 0.457647 -34.991298 -16.556887 0.000000 0.000000 0.000000 -33.280722 7.799970 -58.010836 91.973794 -68.952460 67.519382 -44.147220 -64.049352 18.694715 0.000000 0.000000 0.000000 35.271552 -3.322626 82.073058 -6.439926 1.255006 -24.650347 -14.204347 -18.159258 33.224118 9.442893 -5.637516 -42.488159 0.000000 0.000000 0.000000 1.532498 -35.031660 9.596767 -25.438072 -41.675067 5.454856 37.765195 -56.744901 -16.912360 0.000000 0.000000 0.000000 19.324763 21.898932 5.330595 25.771253 26.141253 2.181262 -20.904977 61.342527 -14.513266 0.000000 0.000000 0.000000 
